# xmcd
#
# Track frame offsets:
# 150
# 18292
# 35131
# 51004
# 64455
# 80677
# 103030
# 120747
# 153199
# 170450
# 189950
# 206171
# 225044
#
# Disc length: 3335 seconds
#
#
# Revision: 0
# Processed by: cddbd v1.5.2PL0 Copyright (c) Steve Scherf et al.
# Submitted via: Nero 7, 11, 10, 0 
#
DISCID=a50d050d
DTITLE=JT Ross - Loaded
DYEAR=2002
DGENRE=Blues
TTITLE0=I've Got To Know
TTITLE1=What Is Going On?
TTITLE2=If I Get Lucky
TTITLE3=Ain't That Lovin' Ya' Baby'?
TTITLE4=Doggin' It
TTITLE5=Too Much Crime In The City
TTITLE6=I Need Some Money
TTITLE7=I Need To Go Home
TTITLE8=Pawnshop Bound
TTITLE9=Young Fashioned Ways
TTITLE10=It Ain't Right
TTITLE11=Can't Get No Rest
TTITLE12=Top Hat
EXTD=
EXTT0=I've Got To Know
EXTT1=What Is Going On?
EXTT2=If I Get Lucky
EXTT3=Ain't That Lovin' Ya' Baby'?
EXTT4=Doggin' It
EXTT5=Too Much Crime In The City
EXTT6=I Need Some Money
EXTT7=I Need To Go Home
EXTT8=Pawnshop Bound
EXTT9=Young Fashioned Ways
EXTT10=It Ain't Right
EXTT11=Can't Get No Rest
EXTT12=Top Hat
PLAYORDER=
